<svg xmlns:xlink="http://www.w3.org/1999/xlink" fill="none" width="27.093" xmlns="http://www.w3.org/2000/svg" style="-webkit-print-color-adjust:exact" id="screenshot-5dcde3bf-4b3e-800c-8003-26d1e0ecbbde" version="1.1" viewBox="-941 -8 27.093 31.294" height="31.294">
  <g id="shape-5dcde3bf-4b3e-800c-8003-26d1e0ecbbde">
    <g class="fills" id="fills-5dcde3bf-4b3e-800c-8003-26d1e0ecbbde">
      <path class="cls-1" rx="0" ry="0" [attr.fill]="fillColor" style="fill-opacity:1" d="M-926.145,23.294L-926.851,22.029C-927.052,21.672,-927.272,21.326,-927.510,20.993C-930.000,17.405,-933.962,15.116,-938.314,14.752C-938.758,14.714,-939.168,14.694,-939.573,14.694L-941.000,14.694L-941.000,0.600L-939.573,0.600C-939.166,0.600,-938.758,0.582,-938.319,0.543C-933.968,0.176,-930.005,-2.110,-927.510,-5.693C-927.269,-6.025,-927.049,-6.371,-926.851,-6.730L-926.147,-8.000L-913.914,-0.937L-914.639,0.302C-914.848,0.655,-915.038,1.019,-915.210,1.391L-915.210,1.404C-917.071,5.354,-917.071,9.929,-915.210,13.878C-915.024,14.282,-914.836,14.643,-914.632,14.992L-913.907,16.231ZM-938.145,11.901L-938.145,11.901ZC-932.874,12.338,-928.147,15.069,-925.175,19.350L-925.132,19.411L-922.728,18.032C-926.234,12.862,-931.915,9.583,-938.145,9.135ZM-920.170,-1.245C-922.896,4.376,-922.896,10.936,-920.170,16.557L-917.769,15.162C-917.782,15.135,-917.795,15.107,-917.807,15.081C-920.025,10.368,-920.025,4.910,-917.807,0.197C-917.795,0.175,-917.785,0.152,-917.776,0.131ZM-931.576,7.652C-929.086,8.572,-926.771,9.909,-924.730,11.606C-925.180,8.989,-925.180,6.315,-924.730,3.698C-926.771,5.395,-929.086,6.733,-931.576,7.652ZZM-938.145,3.393L-938.145,6.169C-931.914,5.721,-926.233,2.443,-922.728,-2.728L-925.130,-4.117L-925.183,-4.046C-928.161,0.225,-932.885,2.949,-938.145,3.393ZZ">
      </path>
    </g>
  </g>
</svg>