<!-- Shape: svg-path -->
<svg xmlns:xlink="http://www.w3.org/1999/xlink" fill="none" width="18" xmlns="http://www.w3.org/2000/svg" style="-webkit-print-color-adjust:exact" id="screenshot-5dcde3bf-4b3e-800c-8003-26d29ed9f276" version="1.1" viewBox="-421.5 104 18 15" height="15">
  <g id="shape-5dcde3bf-4b3e-800c-8003-26d29ed9f276">
    <g class="fills" id="fills-5dcde3bf-4b3e-800c-8003-26d29ed9f276">
      <path rx="0" ry="0" [attr.fill]="fillColor" style="fill-opacity:1" d="M-412.500,104.000C-408.014,104.000,-404.282,107.233,-403.500,111.500C-404.282,115.767,-408.014,119.000,-412.500,119.000C-416.986,119.000,-420.718,115.767,-421.500,111.500C-420.718,107.233,-416.986,104.000,-412.500,104.000ZZM-412.500,117.333C-408.976,117.333,-405.961,114.877,-405.198,111.500C-405.961,108.123,-408.976,105.667,-412.500,105.667C-416.024,105.667,-419.039,108.123,-419.802,111.500C-419.039,114.877,-416.024,117.333,-412.500,117.333ZZM-412.500,115.250C-414.568,115.250,-416.244,113.571,-416.244,111.500C-416.244,109.429,-414.568,107.750,-412.500,107.750C-410.433,107.750,-408.756,109.429,-408.756,111.500C-408.756,113.571,-410.433,115.250,-412.500,115.250ZZM-412.500,113.583C-411.351,113.583,-410.420,112.651,-410.420,111.500C-410.420,110.349,-411.351,109.417,-412.500,109.417C-413.649,109.417,-414.580,110.349,-414.580,111.500C-414.580,112.651,-413.649,113.583,-412.500,113.583ZZ">
      </path>
    </g>
  </g>
</svg>