<!-- Shape: Group -->
<svg xmlns:xlink="http://www.w3.org/1999/xlink" width="92.814" xmlns="http://www.w3.org/2000/svg" style="-webkit-print-color-adjust:exact" id="screenshot-560e3850-11b6-80dd-8003-a6c746cb19cc" version="1.1" viewBox="-1579.314 -320.043 92.814 29.088" height="29.088">
  <g id="shape-560e3850-11b6-80dd-8003-a6c746cb19cc" rx="0" ry="0">
    <g id="shape-5dcde3bf-4b3e-800c-8003-26cf971b2dd8">
      <g class="fills" id="fills-5dcde3bf-4b3e-800c-8003-26cf971b2dd8">
        <path class="cls-1" rx="0" ry="0" [attr.fill]="fillColor" style=" fill-opacity:1" d="M-1570.237,-300.633C-1571.122,-298.834,-1572.778,-298.092,-1574.774,-298.092C-1577.030,-298.092,-1579.314,-299.376,-1579.314,-302.174C-1579.314,-308.083,-1570.464,-305.428,-1570.464,-308.139C-1570.464,-309.082,-1571.235,-309.596,-1572.349,-309.596C-1573.667,-309.596,-1574.318,-308.911,-1574.318,-307.683L-1578.889,-307.683C-1578.889,-311.473,-1575.549,-312.936,-1572.124,-312.936C-1568.726,-312.936,-1565.616,-311.594,-1565.616,-308.054L-1565.616,-298.377L-1570.237,-298.377ZM-1573.005,-301.346C-1571.522,-301.346,-1570.379,-302.203,-1570.379,-303.857L-1570.379,-304.714C-1572.007,-303.857,-1574.575,-304.144,-1574.575,-302.632C-1574.578,-301.775,-1573.862,-301.346,-1573.005,-301.346ZZ">
        </path>
      </g>
    </g>
    <g id="shape-5dcde3bf-4b3e-800c-8003-26cf971b2dd9">
      <g class="fills" id="fills-5dcde3bf-4b3e-800c-8003-26cf971b2dd9">
        <path class="cls-1" rx="0" ry="0" [attr.fill]="fillColor" style=" fill-opacity:1" d="M-1556.116,-290.955C-1560.284,-290.955,-1563.166,-293.410,-1563.680,-297.236L-1559.084,-297.236C-1558.855,-295.666,-1557.799,-294.665,-1556.259,-294.665C-1554.402,-294.665,-1553.404,-295.951,-1553.404,-297.949L-1553.404,-300.033C-1554.416,-298.791,-1555.939,-298.077,-1557.542,-298.092C-1561.340,-298.092,-1563.968,-301.004,-1563.968,-305.507C-1563.968,-310.009,-1561.342,-312.921,-1557.542,-312.921C-1555.858,-312.944,-1554.265,-312.159,-1553.259,-310.809L-1553.259,-312.651L-1548.548,-312.651L-1548.548,-298.092C-1548.550,-293.753,-1551.833,-290.955,-1556.116,-290.955ZZM-1553.404,-305.513C-1553.404,-307.426,-1554.631,-308.711,-1556.315,-308.711C-1558.028,-308.711,-1559.256,-307.426,-1559.256,-305.513C-1559.256,-303.600,-1558.028,-302.317,-1556.315,-302.317C-1554.631,-302.317,-1553.404,-303.602,-1553.404,-305.513ZZ">
        </path>
      </g>
    </g>
    <g id="shape-5dcde3bf-4b3e-800c-8003-26cf971b2dda">
      <g class="fills" id="fills-5dcde3bf-4b3e-800c-8003-26cf971b2dda">
        <path class="cls-1" rx="0" ry="0" [attr.fill]="fillColor" style="fill-opacity:1" d="M-1537.615,-300.633C-1538.500,-298.834,-1540.155,-298.092,-1542.154,-298.092C-1544.409,-298.092,-1546.693,-299.376,-1546.693,-302.174C-1546.693,-308.083,-1537.844,-305.428,-1537.844,-308.139C-1537.844,-309.082,-1538.615,-309.596,-1539.727,-309.596C-1541.045,-309.596,-1541.704,-308.911,-1541.704,-307.683L-1546.268,-307.683C-1546.268,-311.473,-1542.928,-312.936,-1539.503,-312.936C-1536.106,-312.936,-1532.993,-311.594,-1532.993,-308.054L-1532.993,-298.377L-1537.615,-298.377ZM-1540.384,-301.346C-1538.902,-301.346,-1537.758,-302.203,-1537.758,-303.857L-1537.758,-304.714C-1539.384,-303.857,-1541.955,-304.144,-1541.955,-302.632C-1541.958,-301.775,-1541.239,-301.346,-1540.384,-301.346ZZ">
        </path>
      </g>
    </g>
    <g id="shape-5dcde3bf-4b3e-800c-8003-26cf971b2ddb">
      <g class="fills" id="fills-5dcde3bf-4b3e-800c-8003-26cf971b2ddb">
        <path class="cls-1" rx="0" ry="0" [attr.fill]="fillColor" style=" fill-opacity:1" d="M-1525.795,-298.377L-1530.649,-298.377L-1530.649,-312.651L-1525.938,-312.651L-1525.938,-310.738C-1525.139,-312.164,-1523.683,-312.936,-1521.969,-312.936C-1520.000,-312.936,-1518.402,-312.079,-1517.603,-310.339C-1516.832,-311.987,-1515.204,-312.936,-1513.263,-312.936C-1510.438,-312.936,-1508.382,-311.166,-1508.382,-307.627L-1508.382,-298.377L-1513.230,-298.377L-1513.230,-306.451C-1513.230,-308.220,-1513.916,-309.077,-1515.143,-309.077C-1516.399,-309.077,-1517.084,-308.220,-1517.084,-306.451L-1517.084,-298.377L-1521.941,-298.377L-1521.941,-306.451C-1521.941,-308.220,-1522.627,-309.077,-1523.854,-309.077C-1525.110,-309.077,-1525.795,-308.220,-1525.795,-306.451Z">
        </path>
      </g>
    </g>
    <g id="shape-5dcde3bf-4b3e-800c-8003-26cf971b2ddc">
      <g class="fills" id="fills-5dcde3bf-4b3e-800c-8003-26cf971b2ddc">
        <path class="cls-1" rx="0" ry="0" [attr.fill]="fillColor" style=" fill-opacity:1" d="M-1506.362,-317.417C-1506.362,-318.900,-1505.192,-320.043,-1503.592,-320.043C-1501.966,-320.043,-1500.791,-318.901,-1500.791,-317.417C-1500.791,-315.933,-1501.963,-314.763,-1503.592,-314.763C-1505.192,-314.763,-1506.362,-315.933,-1506.362,-317.417ZZM-1506.019,-298.377L-1506.019,-312.651L-1501.167,-312.651L-1501.167,-298.377Z">
        </path>
      </g>
    </g>
    <g id="shape-5dcde3bf-4b3e-800c-8003-26cf971b2ddd">
      <g class="fills" id="fills-5dcde3bf-4b3e-800c-8003-26cf971b2ddd">
        <path class="cls-1" rx="0" ry="0" [attr.fill]="fillColor" style=" fill-opacity:1" d="M-1492.759,-298.092C-1496.549,-298.092,-1499.468,-299.918,-1499.468,-303.088L-1495.043,-303.088C-1495.043,-301.831,-1494.072,-301.203,-1492.817,-301.203C-1491.703,-301.203,-1491.047,-301.631,-1491.047,-302.431C-1491.047,-304.971,-1499.211,-302.516,-1499.211,-308.454C-1499.211,-311.280,-1496.585,-312.936,-1493.188,-312.936C-1489.505,-312.936,-1486.762,-310.823,-1486.762,-308.111L-1491.189,-308.111C-1491.189,-309.082,-1491.990,-309.795,-1493.102,-309.795C-1494.102,-309.795,-1494.749,-309.397,-1494.749,-308.683C-1494.749,-306.398,-1486.500,-308.653,-1486.500,-302.716C-1486.508,-299.776,-1489.163,-298.092,-1492.759,-298.092ZZ">
        </path>
      </g>
    </g>
  </g>
</svg>