<svg xmlns:xlink="http://www.w3.org/1999/xlink" fill="none" width="24" xmlns="http://www.w3.org/2000/svg" style="-webkit-print-color-adjust:exact" id="screenshot-2ff89800-9939-11ed-86ae-6b73ddd7d7b4" version="1.1" viewBox="4549 2712.5 19 18" height="24">
    <g id="shape-2ff89800-9939-11ed-86ae-6b73ddd7d7b4">
      <g class="fills" id="fills-2ff89800-9939-11ed-86ae-6b73ddd7d7b4">
        <path rx="0" ry="0" style="fill:#f5f1e4;fill-opacity:1" d="M4567.050,2730.500L4549.950,2730.500C4549.425,2730.500,4549.000,2730.052,4549.000,2729.500L4549.000,2721.987C4549.000,2721.698,4549.119,2721.423,4549.326,2721.233L4552.800,2718.044L4552.800,2713.500C4552.800,2712.948,4553.225,2712.500,4553.750,2712.500L4567.050,2712.500C4567.575,2712.500,4568.000,2712.948,4568.000,2713.500L4568.000,2729.500C4568.000,2730.052,4567.575,2730.500,4567.050,2730.500ZZM4555.650,2728.500L4558.500,2728.500L4558.500,2722.442L4554.700,2718.954L4550.900,2722.442L4550.900,2728.500L4553.750,2728.500L4553.750,2724.500L4555.650,2724.500L4555.650,2728.500ZZM4560.400,2728.500L4566.100,2728.500L4566.100,2714.500L4554.700,2714.500L4554.700,2716.627C4554.922,2716.627,4555.146,2716.709,4555.324,2716.874L4560.074,2721.233C4560.281,2721.423,4560.400,2721.698,4560.400,2721.987L4560.400,2728.500ZZM4562.300,2720.500L4564.200,2720.500L4564.200,2722.500L4562.300,2722.500L4562.300,2720.500ZZM4562.300,2724.500L4564.200,2724.500L4564.200,2726.500L4562.300,2726.500L4562.300,2724.500ZZM4562.300,2716.500L4564.200,2716.500L4564.200,2718.500L4562.300,2718.500L4562.300,2716.500ZZM4558.500,2716.500L4560.400,2716.500L4560.400,2718.500L4558.500,2718.500L4558.500,2716.500ZZ">
        </path>
      </g>
    </g>
  </svg>