<svg xmlns:xlink="http://www.w3.org/1999/xlink" fill="none" width="30.252" xmlns="http://www.w3.org/2000/svg" style="-webkit-print-color-adjust:exact" id="screenshot-5df20b38-9851-11ed-8aed-474d44167652" version="1.1" viewBox="4275.943 1254.943 32.52 35.041" height="35.041">
    <style data-loading="true">
    </style>
    <g id="shape-5df20b38-9851-11ed-8aed-474d44167652" rx="0" ry="0">
      <g id="shape-5df20b4d-9851-11ed-8aed-474d44167652" style="fill:#000000" width="15.610418mm" version="1.1" height="18.77269mm" rx="0" ry="0">
        <g id="shape-11861100-9947-11ed-86ae-6b73ddd7d7b4">
          <g class="fills" id="fills-11861100-9947-11ed-86ae-6b73ddd7d7b4">
            <path rx="0" ry="0" style="fill:#f5f1e4;fill-opacity:1" d="M4288.997,1285.023L4276.000,1285.023L4277.022,1281.081C4277.022,1281.081,4279.576,1280.096,4279.576,1277.632C4279.576,1270.241,4279.576,1266.792,4282.130,1263.343C4285.194,1259.401,4289.792,1259.401,4289.792,1259.401L4292.346,1259.401C4292.346,1259.401,4296.943,1259.401,4300.008,1263.343C4302.562,1266.792,4302.562,1270.241,4302.562,1277.632C4302.562,1280.096,4305.116,1281.081,4305.116,1281.081L4306.138,1285.023L4293.136,1285.023L4294.643,1286.477L4291.067,1289.926L4287.490,1286.477L4288.997,1285.023ZM4289.500,1255.000L4292.500,1255.000L4292.500,1258.000L4289.500,1258.000L4289.500,1255.000Z">
            </path>
          </g>
          <g id="strokes-11861100-9947-11ed-86ae-6b73ddd7d7b4" class="strokes">
            <g class="stroke-shape">
              <path rx="0" ry="0" style="fill:none;fill-opacity:none;stroke-width:0.114331" d="M4288.997,1285.023L4276.000,1285.023L4277.022,1281.081C4277.022,1281.081,4279.576,1280.096,4279.576,1277.632C4279.576,1270.241,4279.576,1266.792,4282.130,1263.343C4285.194,1259.401,4289.792,1259.401,4289.792,1259.401L4292.346,1259.401C4292.346,1259.401,4296.943,1259.401,4300.008,1263.343C4302.562,1266.792,4302.562,1270.241,4302.562,1277.632C4302.562,1280.096,4305.116,1281.081,4305.116,1281.081L4306.138,1285.023L4293.136,1285.023L4294.643,1286.477L4291.067,1289.926L4287.490,1286.477L4288.997,1285.023ZM4289.500,1255.000L4292.500,1255.000L4292.500,1258.000L4289.500,1258.000L4289.500,1255.000Z">
              </path>
            </g>
          </g>
        </g>
      </g>
    </g>
  </svg>