<svg xmlns:xlink="http://www.w3.org/1999/xlink" fill="none" width="44"  xmlns="http://www.w3.org/2000/svg" style="-webkit-print-color-adjust:exact" id="screenshot-8b9b9140-9938-11ed-86ae-6b73ddd7d7b4" version="1.1" viewBox="4550 2590.5 17 22" height="44">
    <g id="shape-8b9b9140-9938-11ed-86ae-6b73ddd7d7b4">
      <g class="fills" id="fills-8b9b9140-9938-11ed-86ae-6b73ddd7d7b4">
        <path rx="0" ry="0" style="fill:#ffffff; fill-opacity:1" d="M4550.000,2612.500C4550.000,2607.871,4553.806,2604.119,4558.500,2604.119C4563.194,2604.119,4567.000,2607.871,4567.000,2612.500L4564.875,2612.500C4564.875,2609.028,4562.021,2606.214,4558.500,2606.214C4554.979,2606.214,4552.125,2609.028,4552.125,2612.500L4550.000,2612.500ZZM4558.500,2603.071C4554.978,2603.071,4552.125,2600.259,4552.125,2596.786C4552.125,2593.313,4554.978,2590.500,4558.500,2590.500C4562.022,2590.500,4564.875,2593.313,4564.875,2596.786C4564.875,2600.259,4562.022,2603.071,4558.500,2603.071ZZM4558.500,2600.976C4560.848,2600.976,4562.750,2599.101,4562.750,2596.786C4562.750,2594.470,4560.848,2592.595,4558.500,2592.595C4556.152,2592.595,4554.250,2594.470,4554.250,2596.786C4554.250,2599.101,4556.152,2600.976,4558.500,2600.976ZZ">
        </path>
      </g>
    </g>
  </svg>