<!-- Shape: switch -->
<svg xmlns:xlink="http://www.w3.org/1999/xlink" fill="none" width="30.412" xmlns="http://www.w3.org/2000/svg" style="-webkit-print-color-adjust:exact" id="screenshot-21d51390-f658-11ec-9ee5-db4b7d0e5220" version="1.1" viewBox="1183.588 1257.534 30.412 30.466" height="30.466">
  <g id="shape-21d51390-f658-11ec-9ee5-db4b7d0e5220" rx="0" ry="0">
    <g id="shape-d13dc9c0-f4dd-11ec-bde9-0d5cfe7155dc">
      <g class="fills" id="fills-d13dc9c0-f4dd-11ec-bde9-0d5cfe7155dc">
        <path d="M1199,1258 h0 a15,15 0 0 1 15,15 v15 a0,0 0 0 1 0,0 h-15 a15,15 0 0 1 -15,-15 v0 a15,15 0 0 1 15,-15 z" style="fill:#e7e7e7;fill-opacity:1" x="1184" y="1258" transform="" width="30" height="30">
        </path>
      </g>
      <g id="strokes-d13dc9c0-f4dd-11ec-bde9-0d5cfe7155dc" class="strokes">
        <g class="stroke-shape">
          <path d="M1199,1258 h0 a15,15 0 0 1 15,15 v15 a0,0 0 0 1 0,0 h-15 a15,15 0 0 1 -15,-15 v0 a15,15 0 0 1 15,-15 z" style="fill:none;fill-opacity:none" x="1184" y="1258" transform="" width="30" height="30">
          </path>
        </g>
      </g>
    </g>
    <g id="shape-15fdeb00-f658-11ec-9ee5-db4b7d0e5220" style="fill:#000000" width="24.456617mm" version="1.1" height="24.006609mm" rx="0" ry="0">
      <g id="shape-15fe3920-f658-11ec-9ee5-db4b7d0e5220" style="fill:#000000" rx="0" ry="0">
        <g id="shape-15feae50-f658-11ec-9ee5-db4b7d0e5220">
          <g class="fills" id="fills-15feae50-f658-11ec-9ee5-db4b7d0e5220">
            <path rx="0" ry="0" style="fill:#737373;fill-opacity:1" d="M1199.550,1276.223C1199.550,1274.635,1200.079,1274.106,1201.667,1274.106C1205.723,1278.864,1212.228,1282.826,1212.228,1282.826C1212.228,1282.826,1211.939,1285.773,1208.859,1286.003C1208.859,1286.003,1204.448,1280.186,1199.550,1276.223ZZ">
            </path>
          </g>
          <g id="strokes-15feae50-f658-11ec-9ee5-db4b7d0e5220" class="strokes">
            <g class="stroke-shape">
              <path rx="0" ry="0" style="fill:none;fill-opacity:none;stroke-width:0.0134475" d="M1199.550,1276.223C1199.550,1274.635,1200.079,1274.106,1201.667,1274.106C1205.723,1278.864,1212.228,1282.826,1212.228,1282.826C1212.228,1282.826,1211.939,1285.773,1208.859,1286.003C1208.859,1286.003,1204.448,1280.186,1199.550,1276.223ZZ">
              </path>
            </g>
          </g>
        </g>
        <g id="shape-15fefc70-f658-11ec-9ee5-db4b7d0e5220">
          <g class="fills" id="fills-15fefc70-f658-11ec-9ee5-db4b7d0e5220">
            <path rx="0" ry="0" style="fill:#737373;fill-opacity:1" d="M1199.832,1274.089C1202.925,1270.996,1202.720,1265.720,1200.401,1263.400C1198.076,1261.075,1193.678,1261.704,1190.578,1264.803C1187.479,1267.903,1186.850,1272.301,1189.175,1274.626C1191.500,1276.950,1196.715,1277.206,1199.832,1274.089ZC1199.821,1274.100,1199.832,1274.089,1199.832,1274.089ZZM1198.135,1272.247C1198.116,1272.266,1198.097,1272.285,1198.135,1272.247ZC1195.599,1274.783,1192.115,1275.320,1190.298,1273.503C1188.481,1271.686,1189.018,1268.202,1191.497,1265.722C1193.977,1263.243,1197.461,1262.706,1199.278,1264.523C1201.079,1266.324,1200.570,1269.767,1198.135,1272.247ZZ">
            </path>
          </g>
          <g id="strokes-15fefc70-f658-11ec-9ee5-db4b7d0e5220" class="strokes">
            <g class="stroke-shape">
              <path rx="0" ry="0" style="fill:none;fill-opacity:none;stroke-width:0.1" d="M1199.832,1274.089C1202.925,1270.996,1202.720,1265.720,1200.401,1263.400C1198.076,1261.075,1193.678,1261.704,1190.578,1264.803C1187.479,1267.903,1186.850,1272.301,1189.175,1274.626C1191.500,1276.950,1196.715,1277.206,1199.832,1274.089ZC1199.821,1274.100,1199.832,1274.089,1199.832,1274.089ZZM1198.135,1272.247C1198.116,1272.266,1198.097,1272.285,1198.135,1272.247ZC1195.599,1274.783,1192.115,1275.320,1190.298,1273.503C1188.481,1271.686,1189.018,1268.202,1191.497,1265.722C1193.977,1263.243,1197.461,1262.706,1199.278,1264.523C1201.079,1266.324,1200.570,1269.767,1198.135,1272.247ZZ">
              </path>
            </g>
          </g>
        </g>
      </g>
    </g>
    <g id="shape-ee1bd880-f658-11ec-9ee5-db4b7d0e5220">
      <g class="fills" id="fills-ee1bd880-f658-11ec-9ee5-db4b7d0e5220">
        <path rx="0" ry="0" style="fill:#1e1e1e;fill-opacity:1" d="M1214.000,1284.000L1214.000,1288.000L1210.000,1288.000">
        </path>
      </g>
      <g id="strokes-ee1bd880-f658-11ec-9ee5-db4b7d0e5220" class="strokes">
        <g class="stroke-shape">
          <path rx="0" ry="0" style="fill:none;fill-opacity:none" d="M1214.000,1284.000L1214.000,1288.000L1210.000,1288.000">
          </path>
        </g>
      </g>
    </g>
  </g>
</svg>